<svg width="332" height="309" viewBox="0 0 332 309" fill="none" xmlns="http://www.w3.org/2000/svg">
<g filter="url(#filter0_diii_69_264)">
<path d="M302.35 106.633C311.813 130.634 301.311 154.37 273.177 178.797C245.523 202.807 205.549 222.786 170.533 236.624C125.556 251.708 91.8381 261.795 67.1343 267.848C51.2086 271.75 39.8127 273.764 31.9427 274.56C33.9708 271.928 36.4002 269.001 39.2205 265.782C47.3498 256.503 57.7287 245.903 69.1529 234.235C70.0177 233.352 70.8885 232.463 71.7648 231.568C84.0259 219.04 97.1954 205.495 108.837 192.077C120.367 178.786 131.132 164.798 138.112 151.275C144.785 138.345 150.054 121.867 143.805 106.016C131.612 75.0878 110.543 54.0017 97.707 41.156C94.6353 38.0818 92.0351 35.4795 90.141 33.3272C89.8716 33.0212 89.6205 32.7303 89.3863 32.454C92.9361 30.236 98.5357 27.4913 107.052 24.1338C136.998 12.3278 179.609 16.6277 219.406 33.6058C259.274 50.6144 291.105 78.1102 302.35 106.633ZM19.7079 274.533C19.7115 274.53 19.7747 274.546 19.8867 274.588C19.7603 274.556 19.7043 274.535 19.7079 274.533Z" stroke="url(#paint0_linear_69_264)" stroke-width="34.8379" shape-rendering="crispEdges"/>
</g>
<defs>
<filter id="filter0_diii_69_264" x="0.0250349" y="-4.02813" width="331.342" height="312.693" filterUnits="userSpaceOnUse" color-interpolation-filters="sRGB">
<feFlood flood-opacity="0" result="BackgroundImageFix"/>
<feColorMatrix in="SourceAlpha" type="matrix" values="0 0 0 0 0 0 0 0 0 0 0 0 0 0 0 0 0 0 127 0" result="hardAlpha"/>
<feOffset dy="8.13732"/>
<feGaussianBlur stdDeviation="4.06866"/>
<feComposite in2="hardAlpha" operator="out"/>
<feColorMatrix type="matrix" values="0 0 0 0 0 0 0 0 0 0 0 0 0 0 0 0 0 0 0.25 0"/>
<feBlend mode="normal" in2="BackgroundImageFix" result="effect1_dropShadow_69_264"/>
<feBlend mode="normal" in="SourceGraphic" in2="effect1_dropShadow_69_264" result="shape"/>
<feColorMatrix in="SourceAlpha" type="matrix" values="0 0 0 0 0 0 0 0 0 0 0 0 0 0 0 0 0 0 127 0" result="hardAlpha"/>
<feOffset dx="8.13732" dy="4.06866"/>
<feGaussianBlur stdDeviation="3.05149"/>
<feComposite in2="hardAlpha" operator="arithmetic" k2="-1" k3="1"/>
<feColorMatrix type="matrix" values="0 0 0 0 0.996082 0 0 0 0 0.996082 0 0 0 0 0.996082 0 0 0 0.56 0"/>
<feBlend mode="normal" in2="shape" result="effect2_innerShadow_69_264"/>
<feColorMatrix in="SourceAlpha" type="matrix" values="0 0 0 0 0 0 0 0 0 0 0 0 0 0 0 0 0 0 127 0" result="hardAlpha"/>
<feOffset dx="-4.06866" dy="-4.06866"/>
<feGaussianBlur stdDeviation="3.05149"/>
<feComposite in2="hardAlpha" operator="arithmetic" k2="-1" k3="1"/>
<feColorMatrix type="matrix" values="0 0 0 0 0.97081 0 0 0 0 0.00403357 0 0 0 0 0.00403357 0 0 0 0.72 0"/>
<feBlend mode="normal" in2="effect2_innerShadow_69_264" result="effect3_innerShadow_69_264"/>
<feColorMatrix in="SourceAlpha" type="matrix" values="0 0 0 0 0 0 0 0 0 0 0 0 0 0 0 0 0 0 127 0" result="hardAlpha"/>
<feOffset dx="2.03433" dy="2.03433"/>
<feGaussianBlur stdDeviation="4.06866"/>
<feComposite in2="hardAlpha" operator="arithmetic" k2="-1" k3="1"/>
<feColorMatrix type="matrix" values="0 0 0 0 1 0 0 0 0 1 0 0 0 0 1 0 0 0 0.83 0"/>
<feBlend mode="normal" in2="effect3_innerShadow_69_264" result="effect4_innerShadow_69_264"/>
</filter>
<linearGradient id="paint0_linear_69_264" x1="67.3281" y1="308.518" x2="292.103" y2="134.605" gradientUnits="userSpaceOnUse">
<stop stop-color="#FF0000"/>
<stop offset="0.276976" stop-color="#8FFF00"/>
<stop offset="0.594703" stop-color="#00EDB4"/>
<stop offset="0.792631" stop-color="#003BD1"/>
<stop offset="1" stop-color="#FFD600"/>
</linearGradient>
</defs>
</svg>
