<svg width="296" height="196" viewBox="0 0 296 196" fill="none" xmlns="http://www.w3.org/2000/svg">
<g clip-path="url(#clip0_21_2)">
<path d="M203 101.441C182.887 101.441 163.968 98.447 149.73 93.0105C135.301 87.5014 127.355 80.1011 127.355 72.1725C127.355 64.2439 135.301 56.8439 149.73 51.3348C163.968 45.8983 182.887 42.9041 203 42.9041C223.113 42.9041 242.031 45.8983 256.27 51.3348C270.699 56.8439 278.645 64.2442 278.645 72.1725C278.645 80.1008 270.699 87.5014 256.27 93.0105C242.031 98.447 223.113 101.441 203 101.441ZM203 44.1527C183.035 44.1527 164.275 47.1176 150.175 52.5013C136.264 57.8127 128.604 64.7987 128.604 72.1725C128.604 79.5463 136.264 86.5326 150.175 91.8439C164.275 97.2277 183.035 100.193 203 100.193C222.965 100.193 241.725 97.2277 255.825 91.8439C269.735 86.5326 277.396 79.5466 277.396 72.1725C277.396 64.7984 269.735 57.8127 255.825 52.5013C241.725 47.1176 222.964 44.1527 203 44.1527Z" fill="#61DAFB"/>
<path d="M234.254 139.345C228.003 139.345 220.212 135.733 211.589 128.725C199.761 119.112 187.709 104.225 177.653 86.8071C167.596 69.3888 160.73 51.5077 158.319 36.4582C155.876 21.2081 158.311 10.6264 165.178 6.66229C172.044 2.6983 182.426 5.87962 194.411 15.6203C206.239 25.2333 218.291 40.1201 228.347 57.5384C238.404 74.9567 245.27 92.8377 247.681 107.887C250.125 123.137 247.689 133.719 240.823 137.683C238.896 138.796 236.692 139.345 234.254 139.345ZM171.78 6.23902C169.551 6.23902 167.546 6.73652 165.802 7.74356C159.416 11.4306 157.196 21.558 159.552 36.2607C161.939 51.1636 168.752 68.8928 178.734 86.1827C188.716 103.472 200.664 118.237 212.377 127.756C223.932 137.148 233.813 140.29 240.198 136.602C246.584 132.915 248.804 122.787 246.448 108.085C244.061 93.1819 237.248 75.4527 227.266 58.1627C217.284 40.873 205.336 26.1087 193.623 16.5894C185.225 9.76314 177.71 6.23902 171.78 6.23902Z" fill="#61DAFB"/>
<path d="M171.746 139.345C169.308 139.345 167.105 138.796 165.178 137.683C158.311 133.719 155.876 123.137 158.319 107.887C160.73 92.8377 167.596 74.9566 177.653 57.5383C187.709 40.12 199.761 25.2333 211.589 15.6203C223.574 5.87938 233.957 2.69776 240.823 6.66221C247.689 10.6264 250.125 21.208 247.681 36.4581C245.27 51.5076 238.404 69.3887 228.347 86.807C218.291 104.225 206.239 119.112 194.411 128.725C185.789 135.732 177.996 139.345 171.746 139.345ZM234.221 6.23894C228.29 6.23894 220.776 9.7626 212.377 16.5894C200.664 26.1086 188.716 40.873 178.734 58.1626C168.752 75.4526 161.939 93.1818 159.552 108.085C157.196 122.787 159.416 132.915 165.802 136.602C167.546 137.609 169.552 138.106 171.78 138.106C177.71 138.107 185.224 134.583 193.623 127.756C205.336 118.237 217.284 103.472 227.266 86.1827C237.248 68.8927 244.061 51.1635 246.448 36.2606C248.804 21.5579 246.584 11.4305 240.198 7.74348C238.454 6.73675 236.448 6.23894 234.221 6.23894Z" fill="#61DAFB"/>
<path d="M203 86.1537C210.721 86.1537 216.981 79.8942 216.981 72.1726C216.981 64.451 210.721 58.1915 203 58.1915C195.278 58.1915 189.019 64.451 189.019 72.1726C189.019 79.8942 195.278 86.1537 203 86.1537Z" fill="#61DAFB"/>
<path d="M288.301 110.754C288.038 110.31 286.898 110.786 286.688 110.382C286.479 109.981 287.539 109.368 288.144 107.97C288.253 107.717 288.941 106.128 288.432 105.637C287.466 104.707 283.05 108.544 281.505 107.289C281.165 107.013 280.928 106.463 279.902 105.57C279.493 105.215 279.246 105.054 279.008 105.114C278.668 105.199 278.642 105.652 278.278 106.545C277.733 107.883 277.41 107.802 277.092 108.87C276.856 109.663 276.91 110.124 276.633 110.213C276.24 110.34 275.878 109.5 275.381 109.575C274.873 109.652 274.566 110.631 274.469 111.364C274.287 112.739 274.792 113.647 275.072 114.601C275.376 115.638 275.556 117.215 274.854 119.448L267.9 139.041C269.435 135.02 273.88 123.999 275.748 119.904C276.287 118.722 276.883 117.522 278.105 117.049C279.282 116.593 280.899 116.866 282.959 116.369C283.2 116.311 283.868 116.141 283.952 115.748C284.022 115.424 283.629 115.242 283.689 114.938C283.77 114.53 284.543 114.525 285.492 114.054C286.161 113.723 286.578 113.328 286.937 112.988C287.045 112.886 288.652 111.346 288.301 110.754Z" fill="#F2F2F2"/>
<path d="M260.942 121.069C260.648 121.07 260.553 121.767 260.294 121.753C260.037 121.74 260.042 121.043 259.53 120.343C259.438 120.216 258.856 119.42 258.468 119.529C257.734 119.734 258.342 123.009 257.28 123.405C257.047 123.492 256.709 123.449 255.974 123.696C255.682 123.793 255.532 123.868 255.492 124.003C255.436 124.194 255.651 124.338 255.984 124.774C256.484 125.428 256.351 125.563 256.783 126.027C257.104 126.371 257.346 126.478 257.31 126.64C257.259 126.869 256.742 126.804 256.635 127.07C256.527 127.342 256.918 127.775 257.25 128.034C257.873 128.52 258.464 128.534 259.013 128.672C259.61 128.822 260.436 129.188 261.329 130.177L268.939 139.244C267.409 137.33 263.282 131.968 261.811 129.87C261.386 129.264 260.969 128.626 261.09 127.889C261.206 127.18 261.806 126.465 262.157 125.311C262.198 125.176 262.307 124.799 262.138 124.645C261.999 124.517 261.797 124.657 261.665 124.54C261.488 124.382 261.708 124.002 261.751 123.4C261.782 122.976 261.708 122.657 261.645 122.383C261.626 122.301 261.334 121.067 260.942 121.069H260.942Z" fill="#F2F2F2"/>
<path d="M266.811 122.386L266.633 120.804L266.714 120.684C267.089 120.13 267.28 119.588 267.282 119.074C267.283 118.992 267.279 118.91 267.275 118.827C267.26 118.497 267.241 118.087 267.455 117.609C267.574 117.342 267.911 116.725 268.418 116.801C268.554 116.82 268.657 116.883 268.736 116.956C268.747 116.938 268.759 116.92 268.771 116.9C268.929 116.659 269.054 116.556 269.174 116.457C269.267 116.38 269.362 116.302 269.512 116.115C269.578 116.034 269.629 115.962 269.672 115.901C269.803 115.719 269.974 115.501 270.276 115.505C270.598 115.52 270.767 115.787 270.879 115.963C271.079 116.278 271.169 116.505 271.229 116.655C271.251 116.71 271.276 116.772 271.289 116.791C271.392 116.944 272.237 116.801 272.555 116.749C273.27 116.63 273.888 116.527 274.143 116.978C274.326 117.3 274.19 117.726 273.728 118.279C273.584 118.451 273.431 118.581 273.295 118.684C273.407 118.751 273.508 118.854 273.549 119.016C273.645 119.399 273.316 119.784 272.57 120.159C272.384 120.253 272.135 120.379 271.786 120.439C271.621 120.467 271.473 120.474 271.346 120.478C271.343 120.551 271.326 120.631 271.281 120.713C271.15 120.953 270.878 121.068 270.467 121.04C270.014 121.017 269.642 120.93 269.313 120.855C269.027 120.789 268.78 120.733 268.585 120.746C268.226 120.775 267.948 121.063 267.623 121.437L266.811 122.386Z" fill="#F2F2F2"/>
<path d="M267.632 112.967L266.147 113.539L266.01 113.491C265.379 113.27 264.807 113.222 264.309 113.35C264.23 113.371 264.151 113.395 264.072 113.42C263.757 113.519 263.365 113.641 262.848 113.555C262.559 113.507 261.877 113.338 261.822 112.828C261.806 112.692 261.841 112.576 261.892 112.482C261.871 112.475 261.85 112.468 261.828 112.461C261.555 112.37 261.424 112.275 261.297 112.184C261.2 112.114 261.1 112.041 260.881 111.944C260.786 111.901 260.703 111.87 260.634 111.843C260.424 111.763 260.17 111.653 260.097 111.36C260.03 111.044 260.245 110.813 260.387 110.66C260.641 110.387 260.838 110.242 260.968 110.146C261.016 110.111 261.069 110.071 261.085 110.054C261.206 109.915 260.854 109.134 260.723 108.84C260.426 108.179 260.17 107.607 260.541 107.246C260.806 106.987 261.253 107.01 261.905 107.317C262.107 107.413 262.273 107.528 262.406 107.634C262.443 107.508 262.517 107.384 262.663 107.303C263.01 107.113 263.465 107.334 264.018 107.961C264.155 108.116 264.34 108.325 264.487 108.648C264.556 108.8 264.6 108.942 264.636 109.064C264.708 109.048 264.789 109.044 264.879 109.066C265.145 109.132 265.325 109.367 265.403 109.771C265.495 110.215 265.506 110.597 265.516 110.934C265.525 111.228 265.534 111.481 265.596 111.666C265.715 112.006 266.064 112.202 266.508 112.422L267.632 112.967Z" fill="#F2F2F2"/>
<path d="M266.811 108.306L266.633 106.724L266.714 106.604C267.089 106.049 267.28 105.508 267.282 104.993C267.283 104.912 267.279 104.83 267.275 104.747C267.26 104.417 267.241 104.006 267.455 103.528C267.574 103.262 267.911 102.644 268.418 102.721C268.554 102.74 268.657 102.803 268.736 102.876C268.747 102.858 268.759 102.839 268.771 102.819C268.929 102.579 269.054 102.476 269.174 102.376C269.267 102.3 269.362 102.221 269.512 102.035C269.578 101.953 269.629 101.881 269.672 101.821C269.803 101.638 269.974 101.421 270.276 101.424C270.598 101.44 270.767 101.706 270.879 101.883C271.079 102.198 271.169 102.424 271.229 102.575C271.251 102.63 271.276 102.692 271.289 102.711C271.392 102.864 272.237 102.721 272.555 102.669C273.27 102.55 273.888 102.447 274.143 102.897C274.326 103.22 274.19 103.646 273.728 104.198C273.584 104.37 273.431 104.501 273.295 104.603C273.407 104.67 273.508 104.773 273.549 104.935C273.645 105.319 273.316 105.703 272.57 106.079C272.384 106.173 272.135 106.298 271.786 106.359C271.621 106.387 271.473 106.394 271.346 106.397C271.343 106.471 271.326 106.55 271.281 106.632C271.15 106.873 270.878 106.987 270.467 106.96C270.014 106.936 269.642 106.85 269.313 106.774C269.027 106.708 268.78 106.653 268.585 106.666C268.226 106.695 267.948 106.983 267.623 107.356L266.811 108.306Z" fill="#F2F2F2"/>
<path d="M268.429 139.015L268.098 138.807L268.017 138.425L268.098 138.807L267.711 138.852C267.705 138.816 267.684 138.733 267.652 138.604C267.479 137.897 266.952 135.744 266.512 132.354C266.205 129.987 266.031 127.554 265.995 125.121C265.959 122.684 266.074 120.839 266.167 119.357C266.237 118.238 266.322 117.173 266.405 116.136C266.626 113.364 266.835 110.747 266.68 107.848C266.645 107.201 266.573 105.854 265.786 104.421C265.33 103.59 264.701 102.852 263.917 102.229L264.405 101.616C265.27 102.305 265.966 103.123 266.472 104.046C267.345 105.634 267.423 107.102 267.461 107.807C267.619 110.756 267.408 113.4 267.184 116.198C267.102 117.231 267.017 118.292 266.948 119.406C266.856 120.875 266.742 122.703 266.777 125.109C266.812 127.513 266.984 129.916 267.287 132.253C267.722 135.6 268.242 137.721 268.412 138.418C268.503 138.79 268.522 138.868 268.429 139.015Z" fill="#F2F2F2"/>
<path d="M262.483 103.472C262.451 103.472 262.419 103.471 262.386 103.469C261.72 103.433 261.103 103.034 260.552 102.284C260.294 101.931 260.162 101.528 259.898 100.725C259.857 100.602 259.659 99.9737 259.538 99.1097C259.459 98.5452 259.469 98.3092 259.581 98.1006C259.705 97.8684 259.906 97.7064 260.132 97.5972C260.122 97.5223 260.13 97.4452 260.162 97.3665C260.296 97.0403 260.65 97.0831 260.842 97.1037C260.939 97.1159 261.06 97.132 261.191 97.1251C261.396 97.1152 261.507 97.0541 261.674 96.9624C261.834 96.8745 262.033 96.7653 262.328 96.7049C262.91 96.5835 263.398 96.7485 263.559 96.8027C264.405 97.0846 264.822 97.7423 265.305 98.504C265.401 98.6567 265.731 99.2129 265.949 99.9753C266.107 100.525 266.085 100.77 266.037 100.952C265.941 101.325 265.714 101.539 265.137 102.011C264.534 102.505 264.231 102.753 263.972 102.903C263.367 103.252 262.987 103.472 262.483 103.472V103.472Z" fill="#F2F2F2"/>
<path d="M294 139.284C294 139.429 293.883 139.546 293.738 139.546H112V139.022H293.738C293.883 139.022 294 139.139 294 139.284V139.284Z" fill="#E6E6E6"/>
</g>
<g filter="url(#filter0_d_21_2)">
<path d="M151.21 174.37L143.51 160.77H140.21V174.37H133.21V139.47H146.31C149.01 139.47 151.31 139.953 153.21 140.92C155.11 141.853 156.526 143.136 157.46 144.77C158.426 146.37 158.91 148.17 158.91 150.17C158.91 152.47 158.243 154.553 156.91 156.42C155.576 158.253 153.593 159.52 150.96 160.22L159.31 174.37H151.21ZM140.21 155.52H146.06C147.96 155.52 149.376 155.07 150.31 154.17C151.243 153.236 151.71 151.953 151.71 150.32C151.71 148.72 151.243 147.486 150.31 146.62C149.376 145.72 147.96 145.27 146.06 145.27H140.21V155.52ZM190.991 159.92C190.991 160.92 190.924 161.82 190.791 162.62H170.541C170.708 164.62 171.408 166.186 172.641 167.32C173.874 168.453 175.391 169.02 177.191 169.02C179.791 169.02 181.641 167.903 182.741 165.67H190.291C189.491 168.336 187.958 170.536 185.691 172.27C183.424 173.97 180.641 174.82 177.341 174.82C174.674 174.82 172.274 174.236 170.141 173.07C168.041 171.87 166.391 170.186 165.191 168.02C164.024 165.853 163.441 163.353 163.441 160.52C163.441 157.653 164.024 155.136 165.191 152.97C166.358 150.803 167.991 149.136 170.091 147.97C172.191 146.803 174.608 146.22 177.341 146.22C179.974 146.22 182.324 146.786 184.391 147.92C186.491 149.053 188.108 150.67 189.241 152.77C190.408 154.836 190.991 157.22 190.991 159.92ZM183.741 157.92C183.708 156.12 183.058 154.686 181.791 153.62C180.524 152.52 178.974 151.97 177.141 151.97C175.408 151.97 173.941 152.503 172.741 153.57C171.574 154.603 170.858 156.053 170.591 157.92H183.741ZM194.3 160.42C194.3 157.62 194.85 155.136 195.95 152.97C197.084 150.803 198.6 149.136 200.5 147.97C202.434 146.803 204.584 146.22 206.95 146.22C209.017 146.22 210.817 146.636 212.35 147.47C213.917 148.303 215.167 149.353 216.1 150.62V146.67H223.15V174.37H216.1V170.32C215.2 171.62 213.95 172.703 212.35 173.57C210.784 174.403 208.967 174.82 206.9 174.82C204.567 174.82 202.434 174.22 200.5 173.02C198.6 171.82 197.084 170.136 195.95 167.97C194.85 165.77 194.3 163.253 194.3 160.42ZM216.1 160.52C216.1 158.82 215.767 157.37 215.1 156.17C214.434 154.936 213.534 154.003 212.4 153.37C211.267 152.703 210.05 152.37 208.75 152.37C207.45 152.37 206.25 152.686 205.15 153.32C204.05 153.953 203.15 154.886 202.45 156.12C201.784 157.32 201.45 158.753 201.45 160.42C201.45 162.086 201.784 163.553 202.45 164.82C203.15 166.053 204.05 167.003 205.15 167.67C206.284 168.336 207.484 168.67 208.75 168.67C210.05 168.67 211.267 168.353 212.4 167.72C213.534 167.053 214.434 166.12 215.1 164.92C215.767 163.686 216.1 162.22 216.1 160.52ZM228.187 160.52C228.187 157.653 228.77 155.153 229.937 153.02C231.104 150.853 232.72 149.186 234.787 148.02C236.854 146.82 239.22 146.22 241.887 146.22C245.32 146.22 248.154 147.086 250.387 148.82C252.654 150.52 254.17 152.92 254.937 156.02H247.387C246.987 154.82 246.304 153.886 245.337 153.22C244.404 152.52 243.237 152.17 241.837 152.17C239.837 152.17 238.254 152.903 237.087 154.37C235.92 155.803 235.337 157.853 235.337 160.52C235.337 163.153 235.92 165.203 237.087 166.67C238.254 168.103 239.837 168.82 241.837 168.82C244.67 168.82 246.52 167.553 247.387 165.02H254.937C254.17 168.02 252.654 170.403 250.387 172.17C248.12 173.936 245.287 174.82 241.887 174.82C239.22 174.82 236.854 174.236 234.787 173.07C232.72 171.87 231.104 170.203 229.937 168.07C228.77 165.903 228.187 163.386 228.187 160.52ZM268.215 152.42V165.82C268.215 166.753 268.432 167.436 268.865 167.87C269.332 168.27 270.099 168.47 271.165 168.47H274.415V174.37H270.015C264.115 174.37 261.165 171.503 261.165 165.77V152.42H257.865V146.67H261.165V139.82H268.215V146.67H274.415V152.42H268.215Z" fill="url(#paint0_linear_21_2)" shape-rendering="crispEdges"/>
</g>
<path d="M122.604 61.5101C125.126 62.1754 127.513 61.4136 127.936 59.8087C128.359 58.2039 126.658 56.3641 124.135 55.6989C123.131 55.4194 122.075 55.3843 121.055 55.5968L110.335 52.9128L109.183 57.9702L119.873 60.0791C120.656 60.7674 121.592 61.2581 122.604 61.5101Z" fill="#FFB6B6"/>
<path d="M63.6854 36.8874C63.6854 36.8874 61.5081 41.066 64.5259 43.127C67.5437 45.1881 92.6742 54.7404 92.6742 54.7404L117.631 60.1718L118.532 54.1065L95.8099 46.8473L76.8614 34.1037L63.6854 36.8874H63.6854Z" fill="#1B4444"/>
<path d="M93.4038 171.755L97.6365 169.851L90.9722 149.932L84.7256 152.741L93.4038 171.755Z" fill="#FFB6B6"/>
<path d="M111.941 173.616C112.28 174.324 112.052 175.137 111.433 175.433L103.125 179.408C103.125 179.408 100.735 176.513 96.7253 176.694L98.7444 181.504L94.4588 183.555L91.3614 175.748C91.3614 175.748 88.2801 172.253 89.6719 169.047C91.0638 165.84 89.273 167.051 89.273 167.051L87.9712 161.925L94.8117 159.587L98.3731 166.908L105.004 172.693L110.703 172.765C111.21 172.771 111.697 173.106 111.941 173.616L111.941 173.616Z" fill="#1B4444"/>
<path d="M9.64697 161.471L13.4294 164.16L27.2478 148.341L21.6662 144.371L9.64697 161.471Z" fill="#FFB6B6"/>
<path d="M17.4127 178.407C16.9737 179.056 16.157 179.271 15.5885 178.886L7.95903 173.728C7.95903 173.728 9.24884 170.202 7.06587 166.834L3.9358 171.008L0 168.346L5.17016 161.727C5.17016 161.727 6.62824 157.302 10.0983 156.882C13.5684 156.462 11.6187 155.529 11.6187 155.529L15.3836 151.814L20.8582 156.535L16.342 163.309L14.7022 171.954L17.5216 176.908C17.7726 177.349 17.7298 177.938 17.4127 178.407L17.4127 178.407Z" fill="#1B4444"/>
<path d="M76.612 9.80554H56.7373V37.1001H76.612V9.80554Z" fill="#1B4444"/>
<path d="M72.149 25.4064L61.3577 22.1982L59.3161 27.7397L59.0244 61.5719C59.0244 61.5719 74.4823 58.072 77.9821 63.9052L79.1488 53.4055C79.1488 53.4055 82.9403 48.1557 79.7321 41.4476C76.5238 34.7394 73.4993 31.7149 73.4993 31.7149L70.9824 30.3646L72.149 25.4064V25.4064Z" fill="#37CCF9"/>
<path d="M59.7527 56.468L58.2944 71.3425L77.5438 75.4257C77.5438 75.4257 76.0855 62.5928 77.8355 59.6762L59.7527 56.468Z" fill="#FFB6B6"/>
<path d="M78.7105 75.134C78.7105 75.134 66.4609 66.0926 55.9612 69.5925C55.9612 69.5925 43.5658 77.3214 49.9822 90.7376L40.2117 113.924L18.3374 144.548L24.4622 151.84L53.3363 121.799L62.6693 108.966L86.2936 159.131L93.585 155.631L84.5436 117.133L79.1479 90.446L78.7105 75.134H78.7105Z" fill="#1B4444"/>
<path d="M50.1283 92.3419L35.5454 87.6753L49.545 48.8849L48.0867 28.1772L60.4378 24.6934L67.3361 55.3014L50.1283 92.3419Z" fill="#1B4444"/>
<path d="M72.692 32.5211L70.4873 30.3164L71.4706 28.2842C71.4706 28.2842 77.835 34.8853 79.0016 36.6353C80.1683 38.3852 91.0624 82.3376 91.0624 82.3376L74.6268 89.1336L77.835 54.6227L79.0229 46.8604C79.1985 45.7126 79.0021 44.5387 78.4623 43.5106L72.692 32.5211Z" fill="#1B4444"/>
<path d="M67.3284 22.6477C72.6697 22.6477 76.9996 18.3178 76.9996 12.9765C76.9996 7.63524 72.6697 3.3053 67.3284 3.3053C61.9872 3.3053 57.6572 7.63524 57.6572 12.9765C57.6572 18.3178 61.9872 22.6477 67.3284 22.6477Z" fill="#FFB6B6"/>
<path d="M73.3417 9.02337C70.0235 6.8105 64.0847 15.673 62.2688 10.2252C61.9856 9.37573 61.3195 13.1338 61.0758 14.4487C60.7663 16.1186 61.5495 17.4523 61.0758 17.751C60.5406 18.0887 59.2298 16.5814 58.9529 16.8075C58.6822 17.0285 59.5522 18.7802 61.0758 20.8175C63.0981 23.5216 64.3656 24.1797 66.0294 26.0069C67.5783 27.7081 70.4444 30.8556 70.0394 33.5552C69.2776 38.6328 56.8794 42.5569 53.0558 38.7446C52.1403 37.8319 51.9612 35.7649 51.6405 31.6681C51.1632 25.5714 51.5236 20.9964 51.6405 19.6381C52.1273 13.9824 52.3708 11.1546 53.5276 8.78749C54.2663 7.2759 56.7539 2.18551 62.2552 0.531585C68.1649 -1.24505 75.1981 1.65148 77.1159 5.95689C77.67 7.20089 77.1314 7.06827 77.8235 11.1463C78.6426 15.9727 79.1728 18.8687 81.3618 20.5816C83.3727 22.1553 84.9246 21.2757 85.6077 22.4687C87.3794 25.5632 79.1572 35.3551 75.7006 34.027C73.6178 33.2267 73.4337 28.4542 73.5776 26.2428C73.8875 21.4805 76.2472 20.4698 76.1723 16.0999C76.1525 14.9437 76.0824 10.8511 73.3417 9.02337V9.02337Z" fill="#1B4444"/>
<path d="M31.2086 89.8401C30.798 92.4155 31.794 94.7149 33.433 94.976C35.072 95.237 36.7331 93.361 37.1435 90.7847C37.3216 89.7578 37.2512 88.7032 36.9381 87.7091L38.5401 76.7752L33.3931 76.1328L32.3603 86.9799C31.7535 87.8276 31.3586 88.8084 31.2086 89.8401H31.2086Z" fill="#FFB6B6"/>
<path d="M49.837 28.7605C49.837 28.7605 45.4621 27.0106 43.7122 30.2188C41.9623 33.427 34.9625 59.3846 34.9625 59.3846L32.0459 84.7587L38.1707 85.0504L43.1289 61.7178L53.9202 41.5935L49.837 28.7605V28.7605Z" fill="#1B4444"/>
<defs>
<filter id="filter0_d_21_2" x="114.21" y="120.47" width="181.205" height="75.35" filterUnits="userSpaceOnUse" color-interpolation-filters="sRGB">
<feFlood flood-opacity="0" result="BackgroundImageFix"/>
<feColorMatrix in="SourceAlpha" type="matrix" values="0 0 0 0 0 0 0 0 0 0 0 0 0 0 0 0 0 0 127 0" result="hardAlpha"/>
<feOffset dx="1" dy="1"/>
<feGaussianBlur stdDeviation="10"/>
<feComposite in2="hardAlpha" operator="out"/>
<feColorMatrix type="matrix" values="0 0 0 0 0.371535 0 0 0 0 0.971141 0 0 0 0 0.935165 0 0 0 0.28 0"/>
<feBlend mode="normal" in2="BackgroundImageFix" result="effect1_dropShadow_21_2"/>
<feBlend mode="normal" in="SourceGraphic" in2="effect1_dropShadow_21_2" result="shape"/>
</filter>
<linearGradient id="paint0_linear_21_2" x1="201.919" y1="163.389" x2="201.919" y2="181.078" gradientUnits="userSpaceOnUse">
<stop stop-color="#00EDB4"/>
<stop offset="0.459278" stop-color="#00FC74" stop-opacity="0.540722"/>
<stop offset="1" stop-color="#00EDB4"/>
</linearGradient>
<clipPath id="clip0_21_2">
<rect width="182" height="134.546" fill="white" transform="translate(112 5)"/>
</clipPath>
</defs>
</svg>
